<svg width="12" height="11" viewBox="0 0 12 11" fill="none" xmlns="http://www.w3.org/2000/svg">
<path fill-rule="evenodd" clip-rule="evenodd" d="M11.2928 1.58178C11.1635 1.44742 10.9275 1.42564 10.7658 1.53313L5.76576 4.85639C5.6768 4.91551 5.62502 5.00503 5.62502 5.09967C5.62502 5.19432 5.6768 5.28383 5.76576 5.34296L10.7658 8.66622C10.9275 8.77371 11.1635 8.75193 11.2928 8.61756C11.4222 8.4832 11.396 8.28714 11.2343 8.17965L6.60031 5.09967L11.2343 2.0197C11.396 1.91221 11.4222 1.71615 11.2928 1.58178Z" fill="black"/>
<path fill-rule="evenodd" clip-rule="evenodd" d="M6.29281 1.58178C6.16343 1.44742 5.92745 1.42564 5.76573 1.53313L0.765726 4.85639C0.67677 4.91551 0.624986 5.00503 0.624986 5.09967C0.624986 5.19432 0.67677 5.28383 0.765726 5.34296L2.76573 6.67226C2.92745 6.77975 3.16343 6.75797 3.29281 6.62361C3.42219 6.48924 3.39597 6.29318 3.23425 6.18569L1.60028 5.09967L6.23425 2.0197C6.39597 1.91221 6.42219 1.71615 6.29281 1.58178ZM4.45716 7.39749C4.32778 7.53186 4.354 7.72792 4.51573 7.83541L5.76573 8.66622C5.92745 8.77371 6.16343 8.75193 6.29281 8.61756C6.42219 8.4832 6.39597 8.28714 6.23425 8.17965L4.98425 7.34884C4.82252 7.24135 4.58654 7.26313 4.45716 7.39749Z" fill="black"/>
</svg>
