<svg width="24" height="24" viewBox="0 0 24 24" fill="none" xmlns="http://www.w3.org/2000/svg">
<path fill-rule="evenodd" clip-rule="evenodd" d="M17.9697 1.96967C18.2626 1.67678 18.7374 1.67678 19.0303 1.96967L22.0303 4.96967C22.3232 5.26256 22.3232 5.73744 22.0303 6.03033L13.0303 15.0303C12.9156 15.1451 12.7667 15.2195 12.6061 15.2425L9.10607 15.7425C8.87237 15.7758 8.6366 15.6973 8.46967 15.5303C8.30274 15.3634 8.22415 15.1276 8.25754 14.8939L8.75754 11.3939C8.78049 11.2333 8.85492 11.0844 8.96967 10.9697L17.9697 1.96967ZM10.2071 11.8536L9.88388 14.1161L12.1464 13.7929L20.4393 5.5L18.5 3.56066L10.2071 11.8536Z" fill="#808080"/>
<path fill-rule="evenodd" clip-rule="evenodd" d="M5 6.25C4.0335 6.25 3.25 7.0335 3.25 8V14C3.25 14.4142 2.91421 14.75 2.5 14.75C2.08579 14.75 1.75 14.4142 1.75 14V8C1.75 6.20507 3.20507 4.75 5 4.75H12.5C12.9142 4.75 13.25 5.08579 13.25 5.5C13.25 5.91421 12.9142 6.25 12.5 6.25H5ZM18.5 10.75C18.9142 10.75 19.25 11.0858 19.25 11.5V19C19.25 20.7949 17.7949 22.25 16 22.25H5C3.20507 22.25 1.75 20.7949 1.75 19V18C1.75 17.5858 2.08579 17.25 2.5 17.25C2.91421 17.25 3.25 17.5858 3.25 18V19C3.25 19.9665 4.0335 20.75 5 20.75H16C16.9665 20.75 17.75 19.9665 17.75 19V11.5C17.75 11.0858 18.0858 10.75 18.5 10.75Z" fill="#808080"/>
</svg>
