<svg width="12" height="11" viewBox="0 0 12 11" fill="none" xmlns="http://www.w3.org/2000/svg">
<path fill-rule="evenodd" clip-rule="evenodd" d="M0.707188 1.58178C0.836567 1.44742 1.07255 1.42564 1.23427 1.53313L6.23427 4.85639C6.32323 4.91551 6.37501 5.00503 6.37501 5.09967C6.37501 5.19432 6.32323 5.28383 6.23427 5.34296L1.23427 8.66622C1.07255 8.77371 0.836567 8.75193 0.707188 8.61756C0.577809 8.4832 0.60403 8.28714 0.765753 8.17965L5.39972 5.09967L0.765753 2.0197C0.60403 1.91221 0.577809 1.71615 0.707188 1.58178Z" fill="#7B7B7B"/>
<path fill-rule="evenodd" clip-rule="evenodd" d="M5.70719 1.58178C5.83657 1.44742 6.07255 1.42564 6.23427 1.53313L11.2343 4.85639C11.3232 4.91551 11.375 5.00503 11.375 5.09967C11.375 5.19432 11.3232 5.28383 11.2343 5.34296L9.23427 6.67226C9.07255 6.77975 8.83657 6.75797 8.70719 6.62361C8.57781 6.48924 8.60403 6.29318 8.76575 6.18569L10.3997 5.09967L5.76575 2.0197C5.60403 1.91221 5.57781 1.71615 5.70719 1.58178ZM7.54284 7.39749C7.67222 7.53186 7.646 7.72792 7.48427 7.83541L6.23427 8.66622C6.07255 8.77371 5.83657 8.75193 5.70719 8.61756C5.57781 8.4832 5.60403 8.28714 5.76575 8.17965L7.01575 7.34884C7.17748 7.24135 7.41346 7.26313 7.54284 7.39749Z" fill="#7B7B7B"/>
</svg>
