<svg width="60" height="61" viewBox="0 0 60 61" fill="none" xmlns="http://www.w3.org/2000/svg">
<path d="M49.6099 60.4291H10.2322C4.58108 60.4291 0 55.8501 0 50.2001V10.8394C0 5.19099 4.58108 0.610346 10.2322 0.610346H49.6099C55.2605 0.610346 59.8413 5.19099 59.8413 10.8394V50.2001C59.8413 55.8501 55.2605 60.4291 49.6099 60.4291Z" fill="#E3F0FF"/>
<path d="M52.092 15.3344V44.5448C52.092 45.2053 52.0064 45.8469 51.8489 46.4578C51.2309 48.8311 49.4952 50.7527 47.2358 51.6253C47.1495 51.6596 47.0629 51.6904 46.9763 51.7195C46.1983 51.9898 45.3658 52.1353 44.4976 52.1353H15.2769C14.8923 52.1353 14.5128 52.1062 14.1434 52.0497C11.7774 51.6955 9.76859 50.2513 8.64583 48.2425C8.03318 47.1491 7.68414 45.888 7.68414 44.5448V15.3344C7.68414 11.1422 11.0836 7.74389 15.2769 7.74389H44.4976C48.6924 7.74389 52.092 11.1422 52.092 15.3344Z" fill="#D2E4FF"/>
<path d="M27.4028 26.2838C27.4028 26.2838 27.2742 30.2604 26.7651 32.0417L22.7352 34.8513L37.9044 37.1202L34.2867 32.1238C34.2867 32.1238 33.1947 26.792 33.7675 24.8208C34.3403 22.8479 27.4028 26.2838 27.4028 26.2838" fill="#FFB27D"/>
<path d="M27.3809 26.8331C27.3809 26.8314 28.5803 29.7198 30.8397 29.6564C33.0992 29.5914 33.6135 27.0384 33.6135 27.0384L27.3809 26.8331Z" fill="#ED985F"/>
<path d="M26.0322 24.4957C26.0322 24.4957 25.3023 20.8544 24.7932 19.7525C24.2841 18.6488 23.8597 13.7294 29.5032 13.4744C29.5032 13.4744 31.667 13.7294 32.8552 13.0073C32.8552 13.0073 32.8552 13.7294 32.5583 13.9826C32.5583 13.9826 34.5098 13.5172 36.0375 15.2129C37.5651 16.9103 35.0195 22.8479 35.1467 24.2476L26.0322 24.4957" fill="#2C3A64"/>
<path d="M35.2311 19.4222V23.3954C35.2311 24.0593 35.0784 24.6976 34.8208 25.2845H34.8191C34.373 26.2975 33.6143 27.1581 32.7843 27.7382C32.0477 28.2567 31.2563 28.5527 30.5807 28.5407C29.9923 28.5287 29.2275 28.2413 28.4865 27.7502C27.4892 27.0897 26.5393 26.063 26.1345 24.855L26.1285 24.8362L26.1136 24.7865C25.9969 24.4152 25.9301 24.0302 25.9301 23.6333V19.4222C25.9301 18.4366 26.6179 17.6307 27.4581 17.6307H33.7032C34.5435 17.6307 35.2311 18.4366 35.2311 19.4222" fill="#FFB27D"/>
<path d="M39.4438 33.0769C39.4438 33.0769 35.8819 32.3104 34.2867 32.1238C32.8784 33.9941 31.868 34.4955 30.5819 35.0054C28.5098 34.7196 26.7651 32.0999 26.7651 32.0417C24.5117 32.2727 22.9906 32.7535 22.3708 32.9469C22.3708 32.9469 22.3694 32.9469 22.3682 32.9469C22.2238 32.9657 16.7072 33.7323 8.64587 48.3127C9.76863 50.3198 11.7774 51.7657 14.1434 52.1182C15.1822 51.2216 17.4135 49.2846 19.1626 47.7651C19.1434 48.2562 19.1393 48.6994 19.1504 49.0861C19.1804 50.1299 19.2134 51.1668 19.2369 52.2037H41.2302C41.1876 51.6767 41.1534 51.1685 41.1285 50.6843C41.0531 49.1734 40.983 47.7925 40.9183 46.5331C40.917 46.5229 40.917 46.5109 40.9156 46.5006C40.9149 46.4869 40.9142 46.4749 40.9135 46.4613C40.9152 46.463 40.9166 46.463 40.9183 46.4647C41.2371 46.7402 41.6164 47.0704 42.03 47.4297C42.1123 47.4999 42.1962 47.5735 42.2814 47.647C42.354 47.7104 42.4285 47.7754 42.5038 47.8404C42.607 47.9294 42.7114 48.0201 42.816 48.1125C43.004 48.275 43.1948 48.4393 43.3874 48.607C43.4752 48.684 43.5648 48.761 43.6526 48.838C43.6993 48.8791 43.746 48.9201 43.794 48.9612C43.8477 49.0074 43.9025 49.0536 43.9562 49.1015C43.9959 49.1357 44.0372 49.1699 44.0773 49.2059C44.1721 49.288 44.2654 49.3701 44.3587 49.4506C44.4359 49.519 44.5114 49.584 44.5882 49.6508C44.6514 49.7055 44.7159 49.7603 44.7793 49.815C45.01 50.0169 45.2368 50.2137 45.4566 50.4037C45.5444 50.4789 45.6311 50.5559 45.7177 50.6295C45.8069 50.7082 45.8964 50.7852 45.9828 50.8588C46.0433 50.9119 46.1038 50.9649 46.1643 51.0162C46.1917 51.0402 46.2179 51.0624 46.244 51.0847C46.336 51.1651 46.424 51.2438 46.5106 51.3157C46.5998 51.3944 46.6864 51.4697 46.7687 51.5415C46.8033 51.5723 46.8375 51.5997 46.8704 51.6288C46.9062 51.6613 46.9419 51.6904 46.9763 51.7195C47.063 51.6904 47.1496 51.6596 47.2359 51.6254C49.4952 50.7527 51.231 48.8311 51.8489 46.4578C44.2984 33.4654 39.4438 33.0769 39.4438 33.0769" fill="#F99746"/>
<path d="M25.9301 21.6706C25.9301 21.6706 25.9388 19.1416 27.9437 18.7514C29.9487 18.363 34.4358 19.9852 35.0722 18.1406C35.7087 16.2943 26.3988 16.3268 25.9301 17.504C25.4614 18.6813 25.9301 21.6706 25.9301 21.6706" fill="#2C3A64"/>
<path d="M32.7843 25.9877V27.7382C32.0477 28.2567 31.2563 28.5527 30.5807 28.5407C29.9924 28.5287 29.2275 28.2413 28.4865 27.7502V25.9877C28.4865 25.0107 29.2868 24.2099 30.2649 24.2099H31.0057C31.984 24.2099 32.7843 25.0107 32.7843 25.9877" fill="#2C3A64"/>
<path d="M34.8191 25.2845C33.979 27.1958 32.0183 28.5647 30.5807 28.5407C29.1995 28.515 26.8386 26.9596 26.1345 24.855L26.1285 24.8361L26.1136 24.7865C26.1136 24.7865 27.5973 26.051 28.5785 25.4248H32.6999C32.6999 25.4248 33.7789 26.0408 34.8191 25.2845" fill="#2C3A64"/>
<path d="M31.0799 25.7739H30.191C29.987 25.7739 29.7278 25.4403 29.7278 25.2366C29.7278 25.2366 29.987 25.033 30.191 25.033H31.0799C31.2838 25.033 31.5817 25.2024 31.6296 25.3239C31.6296 25.3239 31.5062 25.7739 31.0799 25.7739Z" fill="#FFB27D"/>
</svg>
