<svg width="60" height="61" viewBox="0 0 60 61" fill="none" xmlns="http://www.w3.org/2000/svg">
<path d="M49.6081 60.4291H10.2332C4.58179 60.4291 0 55.849 0 50.1998V10.8397C0 5.19043 4.58179 0.610352 10.2332 0.610352H49.6081C55.2595 0.610352 59.8413 5.19043 59.8413 10.8397V50.1998C59.8413 55.849 55.2595 60.4291 49.6081 60.4291Z" fill="#E3F0FF"/>
<path d="M52.091 15.3346V44.544C52.091 46.5443 51.3169 48.3616 50.0514 49.7181C48.6655 51.2047 46.6901 52.1342 44.498 52.1342H15.2775C13.0244 52.1342 10.9993 51.1533 9.60851 49.5929C8.41207 48.2524 7.68457 46.4833 7.68457 44.544V15.3346C7.68457 11.143 11.0844 7.7445 15.2775 7.7445H44.498C48.6912 7.7445 52.091 11.143 52.091 15.3346Z" fill="#D2E4FF"/>
<path d="M24.1665 29.7315C24.1665 29.7315 19.9251 22.0419 23.8148 18.6465C27.7044 15.2512 34.5522 17.2788 35.8129 18.6465C37.0736 20.0159 38.7502 23.9105 35.2717 29.4474L24.1665 29.7315Z" fill="#2C3A64"/>
<path d="M25.9234 32.8957C25.9234 32.8957 25.7708 37.6443 25.1622 39.7714L20.3507 43.1266L38.4627 45.8348L34.1427 39.8693C34.1427 39.8693 32.8387 33.5041 33.5228 31.1491C34.2069 28.794 25.9234 32.8957 25.9234 32.8957Z" fill="#B56F40"/>
<path d="M25.8977 33.5522C25.8977 33.5506 27.3302 36.9989 30.0282 36.9219C32.7246 36.8464 33.3397 33.7963 33.3397 33.7963L25.8977 33.5522Z" fill="#99592E"/>
<path d="M29.7182 35.591C27.7638 35.5557 24.1664 32.9534 24.1664 29.7314V24.7035C24.1664 23.5267 24.9871 22.5651 25.9892 22.5651H33.4473C34.451 22.5651 35.2717 23.5267 35.2717 24.7035V29.4473C35.2717 32.8266 31.9602 35.6295 29.7182 35.591Z" fill="#B56F40"/>
<path d="M50.0513 49.7181C48.6654 51.2047 46.6901 52.1342 44.4979 52.1342H15.2775C13.0243 52.1342 10.9992 51.1533 9.60846 49.5929C15.8717 41.2739 19.8416 40.7506 19.9444 40.7393C20.6848 40.5098 22.485 39.9864 25.1798 39.7103C25.1798 39.7793 27.2772 42.8536 29.752 43.1939C31.2889 42.5871 32.4404 41.9931 34.1218 39.7601C36.0265 39.9816 38.1416 40.4215 40.3337 40.9737L40.3321 40.9625C40.3321 40.9625 44.0434 41.8936 50.0513 49.7181Z" fill="#74ACBE"/>
<path d="M24.1666 26.7423C24.1666 26.7423 25.522 22.6021 29.9689 23.2491C34.4142 23.8944 34.7996 24.8432 35.2718 25.9461C35.7439 27.0473 36.6561 21.9198 36.6561 21.9198L31.4127 20.361C31.4127 20.361 25.0659 21.0834 24.6114 22.1462C24.1553 23.2105 24.1553 23.2105 24.1553 23.2105L24.1666 26.7423Z" fill="#2C3A64"/>
<path d="M29.3553 18.7331C29.3553 18.7331 24.6563 14.4645 26.6734 13.5526C28.6889 12.6424 29.3553 18.7331 29.3553 18.7331Z" fill="#2C3A64"/>
<path d="M29.1659 18.8456C29.1659 18.8456 23.2254 16.6078 24.7623 15.0185C26.3008 13.4292 29.1659 18.8456 29.1659 18.8456Z" fill="#2C3A64"/>
<path d="M29.5545 18.9692C29.5545 18.9692 28.5829 13.4644 30.9308 13.5046C33.2787 13.5447 29.5545 18.9692 29.5545 18.9692Z" fill="#2C3A64"/>
<path d="M29.8837 18.6096C29.8837 18.6096 32.4292 12.689 34.798 13.2429C37.1668 13.7967 29.8837 18.6096 29.8837 18.6096Z" fill="#2C3A64"/>
<path d="M29.7536 18.9692C29.7536 18.9692 33.8038 13.9557 35.9349 15.1276C38.0645 16.3011 29.7536 18.9692 29.7536 18.9692Z" fill="#2C3A64"/>
</svg>
