<svg width="45" height="45" viewBox="0 0 45 45" fill="none" xmlns="http://www.w3.org/2000/svg">
<path d="M37.3061 45H7.6945C3.44492 45 0 41.5554 0 37.305V7.69501C0 3.44589 3.44492 5.6159e-07 7.6945 5.6159e-07H37.3061C41.5553 5.6159e-07 45 3.44589 45 7.69501V37.305C45 41.5554 41.5553 45 37.3061 45Z" fill="#E3F0FF"/>
<path d="M39.1726 11.0765V33.0507C39.1726 33.5476 39.1082 34.0303 38.9898 34.4898C38.5251 36.2752 37.2198 37.7207 35.5208 38.3772C35.4559 38.403 35.3908 38.4261 35.3257 38.448C34.7406 38.6514 34.1146 38.7608 33.4617 38.7608H11.4881C11.1988 38.7608 10.9135 38.7389 10.6357 38.6964C8.85644 38.43 7.34586 37.3436 6.50156 35.8324C6.04085 35.0098 5.77838 34.0612 5.77838 33.0507V11.0765C5.77838 7.92282 8.33472 5.36639 11.4881 5.36639H33.4617C36.6161 5.36639 39.1726 7.92282 39.1726 11.0765Z" fill="#D2E4FF"/>
<path d="M20.6066 19.3134C20.6066 19.3134 20.5099 22.305 20.1271 23.6449L17.0967 25.7586L28.5037 27.4654L25.7833 23.7067C25.7833 23.7067 24.9621 19.6958 25.3928 18.2129C25.8235 16.7287 20.6066 19.3134 20.6066 19.3134" fill="#FFB27D"/>
<path d="M20.5901 19.7266C20.5901 19.7253 21.4921 21.8982 23.1911 21.8505C24.8903 21.8016 25.2769 19.8811 25.2769 19.8811L20.5901 19.7266Z" fill="#ED985F"/>
<path d="M19.5759 17.9683C19.5759 17.9683 19.027 15.2291 18.6442 14.4001C18.2614 13.5699 17.9422 9.86909 22.186 9.6773C22.186 9.6773 23.8132 9.8691 24.7067 9.32589C24.7067 9.32589 24.7067 9.8691 24.4835 10.0596C24.4835 10.0596 25.951 9.70947 27.0998 10.9851C28.2486 12.262 26.3343 16.7287 26.4299 17.7816L19.5759 17.9683" fill="#2C3A64"/>
<path d="M26.4934 14.1517V17.1406C26.4934 17.64 26.3786 18.1202 26.1848 18.5617H26.1836C25.8481 19.3237 25.2776 19.9712 24.6534 20.4076C24.0995 20.7976 23.5044 21.0203 22.9963 21.0113C22.5539 21.0023 21.9788 20.786 21.4215 20.4166C20.6716 19.9197 19.9573 19.1474 19.6528 18.2386L19.6483 18.2244L19.6371 18.1871C19.5493 17.9078 19.4991 17.6182 19.4991 17.3195V14.1517C19.4991 13.4102 20.0164 12.8039 20.6481 12.8039H25.3444C25.9763 12.8039 26.4934 13.4102 26.4934 14.1517" fill="#FFB27D"/>
<path d="M29.6613 24.4237C29.6613 24.4237 26.9828 23.8471 25.7832 23.7068C24.7242 25.1137 23.9643 25.4909 22.9972 25.8745C21.439 25.6595 20.1271 23.6887 20.1271 23.645C18.4325 23.8188 17.2887 24.1805 16.8226 24.3259C16.8226 24.3259 16.8216 24.3259 16.8206 24.3259C16.712 24.3401 12.5636 24.9168 6.50159 35.8852C7.34589 37.3951 8.85647 38.4828 10.6357 38.748C11.4168 38.0735 13.0947 36.6163 14.41 35.4733C14.3956 35.8427 14.3925 36.1761 14.4009 36.467C14.4234 37.2522 14.4483 38.0323 14.4659 38.8123H31.0047C30.9726 38.4159 30.9469 38.0335 30.9282 37.6693C30.8714 36.5326 30.8188 35.4939 30.7701 34.5465C30.7691 34.5387 30.7691 34.5297 30.7681 34.522C30.7676 34.5117 30.767 34.5027 30.7665 34.4924C30.7678 34.4937 30.7688 34.4937 30.7701 34.495C31.0098 34.7022 31.2951 34.9507 31.6061 35.221C31.668 35.2737 31.7311 35.3291 31.7952 35.3844C31.8497 35.4321 31.9057 35.481 31.9624 35.5299C32.04 35.5968 32.1185 35.6651 32.1972 35.7346C32.3385 35.8569 32.482 35.9804 32.6269 36.1066C32.6929 36.1645 32.7602 36.2224 32.8263 36.2804C32.8614 36.3113 32.8965 36.3421 32.9326 36.373C32.973 36.4078 33.0142 36.4425 33.0546 36.4786C33.0845 36.5043 33.1155 36.5301 33.1456 36.5571C33.2169 36.6189 33.2871 36.6807 33.3572 36.7412C33.4153 36.7927 33.4721 36.8416 33.5299 36.8918C33.5774 36.933 33.6259 36.9742 33.6735 37.0154C33.847 37.1673 34.0176 37.3153 34.1829 37.4582C34.2489 37.5148 34.314 37.5727 34.3792 37.6281C34.4462 37.6873 34.5136 37.7452 34.5786 37.8006C34.624 37.8405 34.6696 37.8804 34.715 37.919C34.7356 37.937 34.7553 37.9537 34.775 37.9705C34.8441 38.031 34.9103 38.0902 34.9754 38.1443C35.0425 38.2035 35.1076 38.2601 35.1696 38.3142C35.1956 38.3373 35.2213 38.3579 35.246 38.3798C35.2729 38.4043 35.2998 38.4262 35.3257 38.448C35.3908 38.4262 35.456 38.403 35.5208 38.3772C37.2199 37.7208 38.5251 36.2752 38.9898 34.4898C33.3119 24.7159 29.6613 24.4237 29.6613 24.4237" fill="#F99746"/>
<path d="M19.4991 15.8431C19.4991 15.8431 19.5057 13.9406 21.0133 13.6471C22.521 13.3549 25.8953 14.5752 26.3739 13.1875C26.8525 11.7986 19.8516 11.8231 19.4991 12.7087C19.1467 13.5943 19.4991 15.8431 19.4991 15.8431" fill="#2C3A64"/>
<path d="M24.6535 19.0907V20.4076C24.0996 20.7976 23.5045 21.0203 22.9964 21.0113C22.554 21.0023 21.9788 20.786 21.4216 20.4166V19.0907C21.4216 18.3557 22.0234 17.7533 22.7589 17.7533H23.316C24.0517 17.7533 24.6535 18.3557 24.6535 19.0907" fill="#2C3A64"/>
<path d="M26.1836 18.5617C25.5518 19.9995 24.0774 21.0293 22.9964 21.0112C21.9577 20.9919 20.1824 19.8218 19.6529 18.2386L19.6484 18.2244L19.6372 18.1871C19.6372 18.1871 20.7529 19.1383 21.4907 18.6672H24.59C24.59 18.6672 25.4014 19.1306 26.1836 18.5617" fill="#2C3A64"/>
<path d="M23.3718 18.9299H22.7033C22.5499 18.9299 22.355 18.6789 22.355 18.5257C22.355 18.5257 22.5499 18.3725 22.7033 18.3725H23.3718C23.5251 18.3725 23.7491 18.4999 23.7851 18.5913C23.7851 18.5913 23.6923 18.9299 23.3718 18.9299Z" fill="#FFB27D"/>
</svg>
