<svg width="45" height="45" viewBox="0 0 45 45" fill="none" xmlns="http://www.w3.org/2000/svg">
<path d="M37.305 45H7.69501C3.44589 45 0 41.5554 0 37.305V7.69502C0 3.44462 3.44589 0 7.69501 0H37.305C41.5554 0 45 3.44462 45 7.69502V37.305C45 41.5554 41.5554 45 37.305 45Z" fill="#E3F0FF"/>
<path d="M39.1714 11.0766V33.0495C39.1714 34.4551 38.6643 35.741 37.8224 36.7361C36.7759 37.9731 35.2106 38.7596 33.4626 38.7596H11.4884C10.0455 38.7596 8.72862 38.2254 7.72459 37.3423C6.53134 36.2958 5.77832 34.7615 5.77832 33.0495V11.0766C5.77832 7.92288 8.33474 5.36646 11.4884 5.36646H33.4626C36.6163 5.36646 39.1714 7.92288 39.1714 11.0766Z" fill="#D2E4FF"/>
<path d="M20.1424 25.8127C20.1424 25.8127 16.5575 25.6325 16.4571 23.5639C16.3567 21.4954 13.3948 19.9867 14.2534 18.3262C15.305 16.2898 14.3448 14.3307 15.6732 12.9624C17.1354 11.4524 18.9839 12.2724 19.9596 11.3932C20.934 10.5141 22.7169 9.7044 24.4752 10.7895C26.2335 11.8759 27.5761 11.2915 28.732 12.3381C30.009 13.4927 29.525 14.9473 30.5779 15.7376C31.5433 16.461 31.1507 18.4395 30.3372 20.0472C29.7515 21.2057 31.1018 22.2921 28.7822 23.6231C27.8181 24.1779 28.0266 25.572 25.0969 25.8127C23.7762 25.9208 20.9122 25.303 20.1424 25.8127Z" fill="#2C3A64"/>
<path d="M20.2493 23.9784C20.2493 23.9784 20.145 27.2106 19.7319 28.6588L16.4572 30.9423L28.7823 32.7869L25.8436 28.7257C25.8436 28.7257 24.9554 24.3916 25.4214 22.789C25.8873 21.1852 20.2493 23.9784 20.2493 23.9784Z" fill="#B56F40"/>
<path d="M20.2313 24.4251C20.2313 24.4238 21.207 26.7704 23.0425 26.7189C24.8781 26.6674 25.2965 24.5911 25.2965 24.5911L20.2313 24.4251Z" fill="#99592E"/>
<path d="M22.8314 25.8127C21.5017 25.7895 19.0534 24.017 19.0534 21.8236V18.4008C19.0534 17.6002 19.6121 16.9437 20.2943 16.9437H25.3698C26.052 16.9437 26.6107 17.6002 26.6107 18.4008V21.6305C26.6107 23.9308 24.358 25.8397 22.8314 25.8127Z" fill="#B56F40"/>
<path d="M30.0348 29.5494H30.0335C28.5416 29.1749 27.1386 28.8762 25.8436 28.7256C24.698 30.2445 23.878 30.65 22.8315 31.0632C21.1491 30.8302 19.7319 28.7063 19.7319 28.6587C17.8989 28.8453 16.6644 29.2328 16.1598 29.3898C16.1598 29.3898 16.1586 29.3898 16.1547 29.3911C16.0079 29.4104 12.7307 29.9176 7.72467 37.3951C8.7287 38.2768 10.0455 38.811 11.4885 38.811H13.7514H15.5793H31.147C31.1457 38.7943 31.1457 38.7775 31.1444 38.7595H33.4627C35.2107 38.7595 36.776 37.973 37.8225 36.736C34.3045 30.6964 30.0348 29.5494 30.0348 29.5494Z" fill="#B64C41"/>
<path d="M19.0534 19.7885C19.0534 19.7885 19.9764 16.9707 23.0014 17.4097C26.0276 17.8499 26.2889 18.4961 26.6107 19.2453C26.9325 19.9957 27.553 16.5048 27.553 16.5048L23.9848 15.4441C23.9848 15.4441 19.6662 15.9358 19.3559 16.6592C19.0457 17.3839 19.0457 17.3839 19.0457 17.3839L19.0534 19.7885Z" fill="#2C3A64"/>
<path d="M26.3314 20.8466C26.2374 21.3126 25.8873 21.6099 25.2913 21.7309C24.8369 21.8249 24.4044 21.7734 24.4005 21.7721H24.3941C23.9513 21.7721 23.6372 21.5147 23.4068 20.9612C23.3746 20.8878 23.3103 20.714 23.2948 20.5312C23.2948 20.5299 23.2948 20.5299 23.2948 20.5299C23.3257 20.5415 23.3553 20.5557 23.3862 20.5724C23.4171 20.5879 23.4557 20.5763 23.4712 20.5454C23.4879 20.5145 23.4763 20.4772 23.4454 20.4604C23.3952 20.4334 23.345 20.4141 23.2948 20.3961C23.2948 20.3948 23.2948 20.3948 23.2948 20.3948C23.3013 20.3085 23.3231 20.2262 23.3695 20.1566C23.4635 20.0138 23.6475 19.943 23.9153 19.943H25.5204C25.8049 19.943 26.0546 20.0472 26.2027 20.2287C26.3352 20.3896 26.3803 20.6046 26.3314 20.8466ZM22.3706 20.5415C22.3526 20.7205 22.2882 20.8891 22.2599 20.9612C22.0282 21.5147 21.7141 21.7721 21.2713 21.7721H21.2649C21.2597 21.7734 20.8285 21.8249 20.3741 21.7309C19.7781 21.6099 19.428 21.3126 19.334 20.8466C19.2864 20.6046 19.3289 20.3896 19.4628 20.2287C19.6108 20.0472 19.8605 19.943 20.145 19.943H21.7514C22.0192 19.943 22.202 20.0138 22.2972 20.1566C22.3449 20.2287 22.3667 20.3163 22.3719 20.4051V20.4064C22.2908 20.4321 22.238 20.4553 22.2316 20.4591C22.1994 20.4733 22.1852 20.5106 22.1994 20.5428C22.211 20.566 22.2342 20.5788 22.2573 20.5788C22.2663 20.5788 22.2754 20.5776 22.2844 20.5737C22.2857 20.5724 22.3178 20.5583 22.3706 20.5402V20.5415ZM26.285 20.1618C26.1151 19.9546 25.8371 19.8374 25.5204 19.8374H23.9153C23.6089 19.8374 23.3965 19.9237 23.2807 20.0974C23.2266 20.1772 23.1996 20.2686 23.1906 20.3639C22.9215 20.2969 22.6589 20.3317 22.4762 20.3768V20.3755C22.4684 20.2776 22.4401 20.1811 22.3848 20.0974C22.2702 19.9237 22.0565 19.8374 21.7514 19.8374H20.145C19.8283 19.8374 19.549 19.9546 19.3804 20.1618C19.2272 20.3484 19.1757 20.593 19.2311 20.8672C19.4139 21.776 20.4591 21.8918 20.9817 21.8918C21.1426 21.8918 21.2533 21.8802 21.2739 21.8777C21.763 21.8764 22.1067 21.5983 22.3564 21.0011C22.3989 20.8981 22.4684 20.7076 22.4787 20.5081C22.6525 20.4617 22.919 20.4192 23.1867 20.4939C23.1944 20.6986 23.2652 20.8968 23.3077 21.0011C23.5587 21.5983 23.9024 21.8764 24.3915 21.8777C24.4121 21.8802 24.5228 21.8918 24.6837 21.8918C25.2063 21.8918 26.2516 21.776 26.4344 20.8685C26.4897 20.593 26.4382 20.3484 26.285 20.1618Z" fill="#2C3A64"/>
</svg>
